<?xml version="1.0" encoding="utf-8"?>
<!-- Generator: Adobe Illustrator 22.1.0, SVG Export Plug-In . SVG Version: 6.00 Build 0)  -->
<svg version="1.1" id="Ebene_1" xmlns="http://www.w3.org/2000/svg" xmlns:xlink="http://www.w3.org/1999/xlink" x="0px" y="0px"
	 viewBox="0 0 328 106.8" style="enable-background:new 0 0 328 106.8;" xml:space="preserve">
<style type="text/css">
	.st0{fill:#757B90;}
	.st1{fill:#0A2A42;}
	.st2{fill:#FFFFFF;}
</style>
<path class="st0" d="M57.9,56.9c-3.2,0-6.3-0.6-9.2-1.8s-5.6-3-7.8-5.2c-2.2-2.2-4-4.9-5.2-7.8c-1.2-2.9-1.8-6-1.8-9.2
	s0.6-6.3,1.8-9.2c1.2-2.9,3-5.6,5.2-7.8c2.2-2.2,4.9-4,7.8-5.2c5.9-2.4,12.5-2.4,18.4,0c2.9,1.2,5.6,3,7.8,5.2
	c2.2,2.2,4,4.9,5.2,7.8c1.2,2.9,1.8,6,1.8,9.2s-0.6,6.3-1.8,9.2c-1.2,2.9-3,5.6-5.2,7.8c-2.2,2.2-4.9,4-7.8,5.2
	C64.2,56.3,61.1,56.9,57.9,56.9z M57.9,12.8c-2.6,0-5.2,0.5-7.7,1.5c-2.4,1-4.6,2.5-6.5,4.3c-1.9,1.9-3.3,4.1-4.3,6.5
	c-1,2.4-1.5,5-1.5,7.7s0.5,5.2,1.5,7.7c1,2.4,2.5,4.6,4.3,6.5c1.9,1.9,4.1,3.3,6.5,4.3c4.9,2,10.5,2,15.4,0c2.4-1,4.6-2.5,6.5-4.3
	c1.9-1.9,3.3-4.1,4.3-6.5c1-2.4,1.5-5,1.5-7.7s-0.5-5.2-1.5-7.7c-1-2.4-2.5-4.6-4.3-6.5c-1.9-1.9-4.1-3.3-6.5-4.3
	C63.1,13.3,60.6,12.8,57.9,12.8z"/>
<path class="st0" d="M78.7,64.7l-6.2-7.9c-0.8-1.1-0.7-2,0.3-2.8c1.1-0.8,2-0.7,2.8,0.3l6.2,7.9c0.8,1.1,0.7,2-0.3,2.8
	C80.4,65.9,79.5,65.8,78.7,64.7z"/>
<path class="st1" d="M37.3,13.9C21.5,13.3,8.1,25.7,7.5,41.6c0,0.3,0,0.7,0,1v25.1c0,1.9,1.5,3.6,3.6,3.6h25.1
	c15.9,0.3,29-12.4,29.3-28.1C65.7,27.3,53.2,14.2,37.3,13.9z"/>
<path class="st2" d="M48,34.8H24.2c-1.6,0-3-1.3-3-3c0-1.6,1.3-3,3-3H48c1.6,0,3,1.3,3,3C50.9,33.4,49.8,34.8,48,34.8z"/>
<path class="st2" d="M48,45.6H24.2c-1.6,0-3-1.3-3-3.1c0-1.6,1.3-3,3-3H48c1.6,0,3.1,1.3,3.1,3C51.1,44.3,49.8,45.6,48,45.6z"/>
<path class="st2" d="M37.1,56.6H24.3c-1.6,0-3-1.3-3-3.1c0-1.6,1.3-3,3-3h12.8c1.6,0,3.1,1.3,3.1,3C40.1,55.3,38.7,56.6,37.1,56.6z"
	/>
<g>
	<path class="st1" d="M121,64.8l-1.8-6.7h-11.6l-1.8,6.7H95.3L106.9,29h12.9l11.8,35.8H121z M117.3,50.2l-1.5-5.9
		c-0.4-1.3-0.8-3-1.3-5.1c-0.5-2.1-0.8-3.5-1-4.4c-0.1,0.8-0.4,2.2-0.9,4.1c-0.4,1.9-1.4,5.7-2.9,11.3H117.3z"/>
	<path class="st1" d="M135.4,64.8V29.2h9.7v35.7H135.4z"/>
</g>
<g>
	<path class="st1" d="M176.5,39.6c0,3.6-1.2,6.4-3.7,8.3c-2.5,1.9-6,2.9-10.6,2.9H158v14h-4.2V29.2h9.3
		C172.1,29.2,176.5,32.6,176.5,39.6z M158,47.2h3.7c3.7,0,6.3-0.6,8-1.8c1.6-1.2,2.5-3.1,2.5-5.7c0-2.4-0.8-4.1-2.3-5.3
		c-1.5-1.2-4-1.7-7.2-1.7H158V47.2z"/>
	<path class="st1" d="M211.1,64.8h-4.2V48h-18.8v16.8H184V29.2h4.2v15.2h18.8V29.2h4.2V64.8z"/>
	<path class="st1" d="M220.9,64.8V29.2h4.2v35.7H220.9z"/>
	<path class="st1" d="M234.8,64.8V29.2h4.2v31.9h15.7v3.8H234.8z"/>
</g>
<g>
	<path class="st1" d="M290.7,46.9c0,5.7-1.4,10.2-4.3,13.5c-2.9,3.3-6.9,4.9-12,4.9c-5.3,0-9.3-1.6-12.2-4.8
		c-2.9-3.2-4.3-7.8-4.3-13.6c0-5.8,1.4-10.3,4.3-13.5c2.9-3.2,6.9-4.8,12.2-4.8c5.1,0,9.1,1.6,12,4.9
		C289.3,36.7,290.7,41.2,290.7,46.9z M262.3,46.9c0,4.8,1,8.5,3.1,11c2.1,2.5,5,3.7,9,3.7c4,0,6.9-1.2,9-3.7s3-6.2,3-11
		c0-4.8-1-8.4-3-10.9c-2-2.5-5-3.7-8.9-3.7c-4,0-7,1.2-9,3.7C263.3,38.5,262.3,42.2,262.3,46.9z"/>
	<path class="st1" d="M318.8,55.3c0,3.1-1.1,5.6-3.4,7.3c-2.3,1.8-5.4,2.6-9.3,2.6c-4.2,0-7.5-0.5-9.8-1.6v-4
		c1.5,0.6,3.1,1.1,4.8,1.5c1.7,0.4,3.4,0.5,5.1,0.5c2.8,0,4.8-0.5,6.2-1.6c1.4-1,2.1-2.5,2.1-4.4c0-1.2-0.2-2.2-0.7-3
		c-0.5-0.8-1.3-1.5-2.5-2.2c-1.2-0.7-2.9-1.4-5.3-2.3c-3.3-1.2-5.7-2.6-7.1-4.2c-1.4-1.6-2.1-3.8-2.1-6.4c0-2.8,1-4.9,3.1-6.6
		c2.1-1.6,4.8-2.4,8.2-2.4c3.5,0,6.8,0.7,9.8,2l-1.3,3.6c-2.9-1.2-5.8-1.9-8.6-1.9c-2.2,0-3.9,0.5-5.2,1.4c-1.2,0.9-1.9,2.3-1.9,3.9
		c0,1.2,0.2,2.2,0.7,3c0.5,0.8,1.2,1.5,2.3,2.2c1.1,0.7,2.7,1.4,5,2.2c3.7,1.3,6.3,2.8,7.7,4.3C318.1,50.9,318.8,52.9,318.8,55.3z"
		/>
</g>
<g>
	<path class="st1" d="M106.4,91.3c0,1.4-0.5,2.5-1.5,3.3c-1,0.8-2.3,1.2-4,1.2c-2,0-3.5-0.2-4.6-0.7V94c1.2,0.5,2.7,0.8,4.5,0.8
		c1.3,0,2.4-0.3,3.2-0.9c0.8-0.6,1.2-1.4,1.2-2.4c0-0.6-0.1-1.1-0.4-1.5s-0.7-0.8-1.3-1.1s-1.5-0.7-2.6-1.1
		c-1.7-0.6-2.8-1.2-3.5-1.9c-0.6-0.7-1-1.6-1-2.7c0-1.2,0.5-2.2,1.4-3c1-0.8,2.2-1.2,3.7-1.2c1.5,0,3,0.3,4.3,0.9l-0.4,1
		c-1.4-0.6-2.7-0.9-3.9-0.9c-1.2,0-2.2,0.3-2.9,0.8s-1.1,1.3-1.1,2.3c0,0.6,0.1,1.1,0.3,1.5c0.2,0.4,0.6,0.7,1.1,1.1
		s1.4,0.7,2.6,1.1c1.3,0.4,2.2,0.9,2.9,1.3c0.6,0.4,1.1,0.9,1.4,1.4C106.2,89.9,106.4,90.6,106.4,91.3z"/>
	<path class="st1" d="M124.8,95.5v-8c0-1.2-0.2-2.1-0.7-2.6c-0.5-0.5-1.2-0.8-2.1-0.8c-1.2,0-2.2,0.3-2.8,1
		c-0.6,0.7-0.9,1.8-0.9,3.2v7.2h-1.1v-8.3c0-2.1-0.9-3.1-2.8-3.1c-1.3,0-2.2,0.4-2.8,1.1s-0.9,1.9-0.9,3.6v6.7h-1.1V83.3h0.9
		l0.2,1.7h0.1c0.3-0.6,0.8-1.1,1.4-1.4c0.6-0.3,1.3-0.5,2.1-0.5c1.9,0,3.2,0.7,3.7,2.2h0c0.4-0.7,0.9-1.2,1.6-1.6
		c0.7-0.4,1.4-0.6,2.3-0.6c1.3,0,2.3,0.4,3,1.1c0.7,0.7,1,1.8,1,3.4v8H124.8z"/>
	<path class="st1" d="M137.3,95.5l-0.3-1.9h-0.1c-0.6,0.8-1.2,1.3-1.9,1.7c-0.6,0.3-1.4,0.5-2.3,0.5c-1.2,0-2.1-0.3-2.8-0.9
		c-0.7-0.6-1-1.5-1-2.5c0-1.2,0.5-2.1,1.5-2.8c1-0.7,2.4-1,4.3-1l2.3-0.1v-0.8c0-1.2-0.2-2-0.7-2.6c-0.5-0.6-1.2-0.9-2.3-0.9
		c-1.1,0-2.3,0.3-3.5,0.9l-0.4-1c1.3-0.6,2.7-0.9,4-0.9c1.3,0,2.3,0.3,3,1c0.7,0.7,1,1.8,1,3.3v8.1H137.3z M132.8,94.8
		c1.3,0,2.3-0.4,3.1-1.1c0.8-0.7,1.1-1.8,1.1-3.1v-1.2l-2.1,0.1c-1.7,0.1-2.9,0.4-3.7,0.8c-0.7,0.5-1.1,1.2-1.1,2.1
		c0,0.8,0.2,1.4,0.7,1.8S131.9,94.8,132.8,94.8z"/>
	<path class="st1" d="M146.9,83.1c0.5,0,1.1,0.1,1.7,0.2l-0.2,1.1c-0.5-0.1-1-0.2-1.6-0.2c-1,0-1.9,0.4-2.6,1.3c-0.7,0.9-1,2-1,3.3
		v6.7h-1.1V83.3h0.9l0.1,2.2h0.1c0.5-0.9,1-1.5,1.6-1.9C145.4,83.3,146.1,83.1,146.9,83.1z"/>
	<path class="st1" d="M154.2,94.8c0.7,0,1.3-0.1,1.8-0.2v0.9c-0.5,0.2-1.2,0.3-1.9,0.3c-1.1,0-1.9-0.3-2.4-0.9
		c-0.5-0.6-0.8-1.5-0.8-2.7v-7.9h-1.8v-0.7l1.8-0.5l0.6-2.8h0.6v3h3.6v1h-3.6V92c0,0.9,0.2,1.6,0.5,2.1
		C153,94.6,153.5,94.8,154.2,94.8z"/>
	<path class="st1" d="M174.9,83.8c0,1.6-0.5,2.8-1.6,3.6c-1.1,0.8-2.6,1.3-4.6,1.3h-2.5v6.8H165V79.1h4
		C172.9,79.1,174.9,80.7,174.9,83.8z M166.1,87.8h2.3c1.8,0,3.2-0.3,4-0.9c0.8-0.6,1.2-1.6,1.2-3c0-1.3-0.4-2.2-1.2-2.8
		c-0.8-0.6-2-0.9-3.6-0.9h-2.7V87.8z"/>
	<path class="st1" d="M183,83.1c0.5,0,1.1,0.1,1.7,0.2l-0.2,1.1c-0.5-0.1-1-0.2-1.6-0.2c-1,0-1.9,0.4-2.6,1.3s-1,2-1,3.3v6.7h-1.1
		V83.3h0.9l0.1,2.2h0.1c0.5-0.9,1-1.5,1.6-1.9S182.1,83.1,183,83.1z"/>
</g>
<g>
	<path class="st1" d="M196.7,89.4c0,2-0.5,3.5-1.4,4.7s-2.3,1.7-4,1.7c-1.1,0-2-0.3-2.8-0.8c-0.8-0.5-1.4-1.3-1.9-2.2
		c-0.4-1-0.7-2.1-0.7-3.3c0-2,0.5-3.5,1.4-4.7c1-1.1,2.3-1.7,4-1.7c1.7,0,3,0.6,3.9,1.7C196.3,85.9,196.7,87.5,196.7,89.4z
		 M187.1,89.4c0,1.7,0.4,3,1.1,3.9c0.7,0.9,1.8,1.4,3.1,1.4s2.4-0.5,3.1-1.4c0.7-0.9,1.1-2.2,1.1-3.9c0-1.7-0.4-3-1.1-3.9
		c-0.7-0.9-1.8-1.4-3.1-1.4c-1.3,0-2.4,0.5-3.1,1.4C187.5,86.4,187.1,87.7,187.1,89.4z"/>
	<path class="st1" d="M204.6,83.1c0.9,0,1.6,0.2,2.3,0.5c0.6,0.3,1.2,0.9,1.7,1.7h0.1c0-0.9-0.1-1.9-0.1-2.8v-4.4h1.1v17.5H209
		l-0.3-1.9h-0.1c-0.9,1.4-2.3,2.1-4,2.1c-1.7,0-3-0.5-3.9-1.6s-1.3-2.6-1.3-4.6c0-2.1,0.4-3.7,1.3-4.8
		C201.6,83.7,202.9,83.1,204.6,83.1z M204.6,84.1c-1.3,0-2.3,0.5-3,1.4c-0.7,0.9-1,2.3-1,4.1c0,3.5,1.3,5.2,4,5.2
		c1.4,0,2.4-0.4,3-1.2c0.6-0.8,1-2.1,1-4v-0.2c0-1.9-0.3-3.2-0.9-4.1S206,84.1,204.6,84.1z"/>
	<path class="st1" d="M214.8,83.3v7.9c0,1.2,0.3,2.1,0.8,2.7s1.3,0.8,2.4,0.8c1.5,0,2.5-0.4,3.2-1.1c0.7-0.7,1-1.9,1-3.6v-6.7h1.1
		v12.2h-0.9l-0.2-1.7h-0.1c-0.8,1.3-2.2,1.9-4.2,1.9c-2.8,0-4.2-1.5-4.2-4.5v-8H214.8z"/>
	<path class="st1" d="M232.2,95.8c-1.7,0-3.1-0.6-4.1-1.7c-1-1.1-1.5-2.6-1.5-4.6c0-2,0.5-3.6,1.5-4.7c1-1.1,2.4-1.7,4.2-1.7
		c1.1,0,2.1,0.2,3,0.6l-0.3,1c-1.1-0.4-2-0.5-2.8-0.5c-1.5,0-2.6,0.5-3.4,1.4c-0.8,0.9-1.2,2.3-1.2,4c0,1.6,0.4,2.9,1.2,3.9
		c0.8,0.9,1.8,1.4,3.2,1.4c1.1,0,2.1-0.2,3.1-0.6v1C234.5,95.6,233.5,95.8,232.2,95.8z"/>
	<path class="st1" d="M241.5,94.8c0.7,0,1.3-0.1,1.8-0.2v0.9c-0.5,0.2-1.2,0.3-1.9,0.3c-1.1,0-1.9-0.3-2.4-0.9
		c-0.5-0.6-0.8-1.5-0.8-2.7v-7.9h-1.8v-0.7l1.8-0.5l0.6-2.8h0.6v3h3.6v1h-3.6V92c0,0.9,0.2,1.6,0.5,2.1
		C240.3,94.6,240.8,94.8,241.5,94.8z"/>
	<path class="st1" d="M261.3,91.3c0,1.4-0.5,2.5-1.5,3.3c-1,0.8-2.3,1.2-4,1.2c-2,0-3.5-0.2-4.6-0.7V94c1.2,0.5,2.7,0.8,4.5,0.8
		c1.3,0,2.4-0.3,3.2-0.9c0.8-0.6,1.2-1.4,1.2-2.4c0-0.6-0.1-1.1-0.4-1.5s-0.7-0.8-1.3-1.1s-1.5-0.7-2.6-1.1
		c-1.7-0.6-2.8-1.2-3.5-1.9c-0.6-0.7-1-1.6-1-2.7c0-1.2,0.5-2.2,1.4-3c1-0.8,2.2-1.2,3.7-1.2c1.5,0,3,0.3,4.3,0.9l-0.4,1
		c-1.4-0.6-2.7-0.9-3.9-0.9c-1.2,0-2.2,0.3-2.9,0.8s-1.1,1.3-1.1,2.3c0,0.6,0.1,1.1,0.3,1.5c0.2,0.4,0.6,0.7,1.1,1.1
		s1.4,0.7,2.6,1.1c1.3,0.4,2.2,0.9,2.9,1.3c0.6,0.4,1.1,0.9,1.4,1.4C261.2,89.9,261.3,90.6,261.3,91.3z"/>
	<path class="st1" d="M269.4,95.8c-1.8,0-3.2-0.5-4.2-1.6s-1.5-2.6-1.5-4.6c0-1.9,0.5-3.5,1.4-4.7c1-1.2,2.2-1.8,3.9-1.8
		c1.4,0,2.6,0.5,3.4,1.5c0.8,1,1.2,2.4,1.2,4.1v0.9H265c0,1.7,0.4,3,1.2,3.8s1.9,1.3,3.3,1.3c0.7,0,1.3,0,1.8-0.1
		c0.5-0.1,1.2-0.3,2-0.6v1c-0.7,0.3-1.3,0.5-1.9,0.6S270.1,95.8,269.4,95.8z M269.1,84.1c-1.2,0-2.1,0.4-2.8,1.2
		c-0.7,0.8-1.1,1.9-1.2,3.4h7.5c0-1.4-0.3-2.5-0.9-3.3C271.1,84.5,270.2,84.1,269.1,84.1z"/>
	<path class="st1" d="M284.5,95.5l-0.3-1.9h-0.1c-0.6,0.8-1.2,1.3-1.9,1.7c-0.6,0.3-1.4,0.5-2.3,0.5c-1.2,0-2.1-0.3-2.8-0.9
		c-0.7-0.6-1-1.5-1-2.5c0-1.2,0.5-2.1,1.5-2.8c1-0.7,2.4-1,4.3-1l2.3-0.1v-0.8c0-1.2-0.2-2-0.7-2.6c-0.5-0.6-1.2-0.9-2.3-0.9
		c-1.1,0-2.3,0.3-3.5,0.9l-0.4-1c1.3-0.6,2.7-0.9,4-0.9c1.3,0,2.3,0.3,3,1c0.7,0.7,1,1.8,1,3.3v8.1H284.5z M280.1,94.8
		c1.3,0,2.3-0.4,3.1-1.1c0.8-0.7,1.1-1.8,1.1-3.1v-1.2l-2.1,0.1c-1.7,0.1-2.9,0.4-3.7,0.8c-0.7,0.5-1.1,1.2-1.1,2.1
		c0,0.8,0.2,1.4,0.7,1.8S279.2,94.8,280.1,94.8z"/>
	<path class="st1" d="M294.1,83.1c0.5,0,1.1,0.1,1.7,0.2l-0.2,1.1c-0.5-0.1-1-0.2-1.6-0.2c-1,0-1.9,0.4-2.6,1.3c-0.7,0.9-1,2-1,3.3
		v6.7h-1.1V83.3h0.9l0.1,2.2h0.1c0.5-0.9,1-1.5,1.6-1.9C292.6,83.3,293.3,83.1,294.1,83.1z"/>
</g>
<g>
	<path class="st1" d="M302.7,95.8c-1.7,0-3.1-0.6-4.1-1.7c-1-1.1-1.5-2.6-1.5-4.6c0-2,0.5-3.6,1.5-4.7c1-1.1,2.4-1.7,4.2-1.7
		c1.1,0,2.1,0.2,3,0.6l-0.3,1c-1.1-0.4-2-0.5-2.8-0.5c-1.5,0-2.6,0.5-3.4,1.4c-0.8,0.9-1.2,2.3-1.2,4c0,1.6,0.4,2.9,1.2,3.9
		c0.8,0.9,1.8,1.4,3.2,1.4c1.1,0,2.1-0.2,3.1-0.6v1C305,95.6,304,95.8,302.7,95.8z"/>
	<path class="st1" d="M317.3,95.5v-7.9c0-1.2-0.3-2.1-0.8-2.7c-0.5-0.6-1.3-0.8-2.4-0.8c-1.5,0-2.5,0.4-3.2,1.1
		c-0.7,0.7-1,1.9-1,3.6v6.7h-1.1V78.1h1.1v5.6l-0.1,1.6h0.1c0.5-0.7,1-1.3,1.7-1.6c0.7-0.3,1.6-0.5,2.6-0.5c2.8,0,4.2,1.5,4.2,4.5v8
		H317.3z"/>
</g>
</svg>
